<svg width="21" height="14" viewBox="0 0 21 14" fill="none" xmlns="http://www.w3.org/2000/svg">
<path d="M18.5625 1.17651H13.4297V2.42205H18.5625V1.17651ZM16.0313 5.45553C15.4286 5.45553 14.9397 5.63299 14.5647 5.9879C14.1897 6.33611 13.9821 6.81156 13.942 7.41424H18.0402C17.9196 6.10843 17.25 5.45553 16.0313 5.45553ZM16.192 11.3316C16.6138 11.3316 17.0223 11.2245 17.4174 11.0102C17.8125 10.7959 18.067 10.5046 18.1808 10.1363H20.4007C19.731 12.1921 18.3013 13.22 16.1116 13.22C14.6786 13.22 13.5368 12.7781 12.6864 11.8941C11.8426 11.0102 11.4208 9.84839 11.4208 8.40866C11.4208 7.0158 11.856 5.86067 12.7266 4.94325C13.6038 4.01915 14.7321 3.55709 16.1116 3.55709C17.0357 3.55709 17.8393 3.78477 18.5223 4.24013C19.2121 4.69549 19.7243 5.29482 20.0592 6.03812C20.4007 6.78142 20.5714 7.61178 20.5714 8.52919C20.5714 8.64303 20.5647 8.8004 20.5513 9.00129H13.942C13.942 9.74459 14.1328 10.3205 14.5145 10.729C14.9029 11.1308 15.4621 11.3316 16.192 11.3316ZM2.78237 10.8294H5.75558C7.12835 10.8294 7.81473 10.2703 7.81473 9.15196C7.81473 7.9466 7.14844 7.34392 5.81585 7.34392H2.78237V10.8294ZM2.78237 5.43544H5.60491C6.12723 5.43544 6.53906 5.31491 6.8404 5.07383C7.14844 4.82607 7.30246 4.44437 7.30246 3.92875C7.30246 2.96446 6.66629 2.48232 5.39397 2.48232H2.78237V5.43544ZM0 0.322718H5.96652C6.54911 0.322718 7.06808 0.369593 7.52344 0.463343C7.9788 0.557093 8.40067 0.717808 8.78906 0.945486C9.18415 1.16647 9.48549 1.4879 9.69308 1.90977C9.90737 2.33165 10.0145 2.84727 10.0145 3.45665C10.0145 4.6687 9.43862 5.54928 8.28683 6.09839C9.05022 6.31267 9.62612 6.69772 10.0145 7.25352C10.4029 7.80933 10.5971 8.49236 10.5971 9.30263C10.5971 9.80486 10.5134 10.2636 10.346 10.6787C10.1853 11.0872 9.96429 11.4321 9.68304 11.7133C9.40848 11.9946 9.08036 12.2323 8.69866 12.4265C8.31696 12.6207 7.91183 12.7613 7.48326 12.8484C7.05469 12.9354 6.60603 12.979 6.13728 12.979H0V0.322718Z" fill="white"/>
</svg>
