<svg width="17" height="16" viewBox="0 0 17 16" fill="none" xmlns="http://www.w3.org/2000/svg">
<path d="M13.3189 0.0570933C14.1158 0.0570933 14.7955 0.341691 15.358 0.910888C15.9272 1.47339 16.2118 2.15308 16.2118 2.94995V12.5928C16.2118 13.3897 15.9272 14.0694 15.358 14.6319C14.7955 15.2011 14.1158 15.4857 13.3189 15.4857H11.4305V9.5091H13.4294L13.7307 7.17875H11.4305V5.69214C11.4305 5.31714 11.5075 5.03589 11.6616 4.84839C11.8223 4.66089 12.1303 4.56714 12.5857 4.56714L13.8111 4.55709V2.47785C13.3892 2.41758 12.7932 2.38745 12.0232 2.38745C11.1124 2.38745 10.3825 2.65531 9.83343 3.19102C9.29102 3.72674 9.01981 4.48343 9.01981 5.46111V7.17875H7.01088V9.5091H9.01981V15.4857H3.67606C2.87919 15.4857 2.19615 15.2011 1.62695 14.6319C1.06445 14.0694 0.783203 13.3897 0.783203 12.5928V2.94995C0.783203 2.15308 1.06445 1.47339 1.62695 0.910888C2.19615 0.341691 2.87919 0.0570933 3.67606 0.0570933H13.3189Z" fill="white"/>
</svg>
