<svg width="24" height="16" viewBox="0 0 24 16" fill="none" xmlns="http://www.w3.org/2000/svg">
<path d="M14.4342 7.94214C14.4342 9.335 14.1429 10.5772 13.5603 11.6687C12.9777 12.7535 12.1473 13.6006 11.0692 14.21C9.99107 14.8261 8.75558 15.1341 7.36272 15.1341C6.36496 15.1341 5.41071 14.9399 4.5 14.5515C3.58929 14.1631 2.8058 13.6408 2.14955 12.9845C1.4933 12.3283 0.970982 11.5448 0.582589 10.6341C0.194196 9.72339 0 8.76915 0 7.77138C0 6.77361 0.194196 5.81937 0.582589 4.90866C0.970982 3.99794 1.4933 3.21446 2.14955 2.55821C2.8058 1.90196 3.58929 1.37964 4.5 0.991246C5.41071 0.602852 6.36496 0.408656 7.36272 0.408656C9.2779 0.408656 10.9219 1.05151 12.2946 2.33723L10.2958 4.25575C9.51228 3.49906 8.5346 3.12071 7.36272 3.12071C6.53906 3.12071 5.77567 3.3283 5.07254 3.74348C4.37612 4.15866 3.82366 4.7245 3.41518 5.44102C3.0067 6.15084 2.80246 6.92763 2.80246 7.77138C2.80246 8.61513 3.0067 9.39526 3.41518 10.1118C3.82366 10.8216 4.37612 11.3841 5.07254 11.7993C5.77567 12.2145 6.53906 12.422 7.36272 12.422C7.91853 12.422 8.42746 12.345 8.88951 12.191C9.35826 12.037 9.7433 11.8462 10.0446 11.6185C10.346 11.3841 10.6071 11.1196 10.8281 10.825C11.0558 10.5303 11.2199 10.2524 11.3203 9.99125C11.4275 9.73008 11.5011 9.48232 11.5413 9.24794H7.36272V6.71669H14.3136C14.394 7.13857 14.4342 7.54705 14.4342 7.94214ZM23.1429 6.71669V8.82607H21.0435V10.9254H18.9342V8.82607H16.8348V6.71669H18.9342V4.61736H21.0435V6.71669H23.1429Z" fill="white"/>
</svg>
