<svg width="17" height="14" viewBox="0 0 17 14" fill="none" xmlns="http://www.w3.org/2000/svg">
<path d="M16.4139 1.86959C15.9653 2.52584 15.4229 3.085 14.7867 3.54705C14.7934 3.6408 14.7967 3.78142 14.7967 3.96892C14.7967 4.83946 14.6695 5.71 14.415 6.58053C14.1606 7.44437 13.7722 8.27473 13.2499 9.0716C12.7342 9.86848 12.1182 10.575 11.4016 11.191C10.6851 11.8004 9.82129 12.2892 8.81013 12.6575C7.79897 13.0191 6.71749 13.2 5.56571 13.2C3.75098 13.2 2.09026 12.7145 0.583566 11.7435C0.817941 11.7703 1.0791 11.7837 1.36705 11.7837C2.87374 11.7837 4.21638 11.3216 5.39495 10.3975C4.69182 10.3841 4.06236 10.1698 3.50656 9.75464C2.95075 9.33276 2.56906 8.79705 2.36147 8.1475C2.58245 8.18098 2.78669 8.19772 2.97419 8.19772C3.26214 8.19772 3.54674 8.16089 3.82799 8.08723C3.07799 7.93321 2.45522 7.56156 1.95968 6.97227C1.47084 6.37629 1.22642 5.68656 1.22642 4.90308V4.8629C1.68178 5.11736 2.17062 5.25464 2.69294 5.27473C2.25098 4.98008 1.89941 4.59504 1.63825 4.11959C1.37709 3.64415 1.24651 3.12852 1.24651 2.57272C1.24651 1.98343 1.39383 1.43767 1.68848 0.935442C2.49874 1.93321 3.48312 2.73343 4.6416 3.33611C5.80678 3.93209 7.05232 4.26357 8.37821 4.33053C8.32464 4.07607 8.29785 3.8283 8.29785 3.58723C8.29785 2.68991 8.61258 1.92651 9.24205 1.29705C9.87821 0.660888 10.645 0.342808 11.5423 0.342808C12.4798 0.342808 13.27 0.684326 13.9128 1.36736C14.6427 1.22674 15.3291 0.965576 15.972 0.58388C15.7242 1.35397 15.2487 1.94995 14.5456 2.37183C15.1684 2.30486 15.7912 2.13745 16.4139 1.86959Z" fill="white"/>
</svg>
