<svg width="104" height="24" viewBox="0 0 104 24" fill="none" xmlns="http://www.w3.org/2000/svg">
<path d="M6.60304 18.288C5.37104 18.288 4.28304 18.08 3.33904 17.664C2.39504 17.232 1.65104 16.624 1.10704 15.84C0.563043 15.04 0.283043 14.072 0.267043 12.936H3.50704C3.53904 13.72 3.81904 14.384 4.34704 14.928C4.89104 15.456 5.63504 15.72 6.57904 15.72C7.39504 15.72 8.04304 15.528 8.52304 15.144C9.00304 14.744 9.24304 14.216 9.24304 13.56C9.24304 12.872 9.02704 12.336 8.59504 11.952C8.17904 11.568 7.61904 11.256 6.91504 11.016C6.21104 10.776 5.45904 10.52 4.65904 10.248C3.36304 9.8 2.37104 9.224 1.68304 8.52C1.01104 7.816 0.675043 6.88 0.675043 5.712C0.659043 4.72 0.891043 3.872 1.37104 3.168C1.86704 2.448 2.53904 1.896 3.38704 1.512C4.23504 1.112 5.21104 0.912 6.31504 0.912C7.43504 0.912 8.41904 1.112 9.26704 1.512C10.131 1.912 10.803 2.472 11.283 3.192C11.779 3.912 12.043 4.768 12.075 5.76H8.78704C8.77104 5.168 8.53904 4.648 8.09104 4.2C7.65904 3.736 7.05104 3.504 6.26704 3.504C5.59504 3.488 5.02704 3.656 4.56304 4.008C4.11504 4.344 3.89104 4.84 3.89104 5.496C3.89104 6.056 4.06704 6.504 4.41904 6.84C4.77104 7.16 5.25104 7.432 5.85904 7.656C6.46704 7.88 7.16304 8.12 7.94704 8.376C8.77904 8.664 9.53904 9 10.227 9.384C10.915 9.768 11.467 10.28 11.883 10.92C12.299 11.544 12.507 12.352 12.507 13.344C12.507 14.224 12.283 15.04 11.835 15.792C11.387 16.544 10.723 17.152 9.84304 17.616C8.96304 18.064 7.88304 18.288 6.60304 18.288ZM20.1267 18C18.8787 18 17.8787 17.696 17.1267 17.088C16.3747 16.48 15.9987 15.4 15.9987 13.848V8.664H13.9587V6.096H15.9987L16.3587 2.904H19.0707V6.096H22.2867V8.664H19.0707V13.872C19.0707 14.448 19.1907 14.848 19.4307 15.072C19.6867 15.28 20.1187 15.384 20.7267 15.384H22.2147V18H20.1267ZM28.7356 18.288C27.7116 18.288 26.8716 18.128 26.2156 17.808C25.5596 17.472 25.0716 17.032 24.7516 16.488C24.4316 15.944 24.2716 15.344 24.2716 14.688C24.2716 13.584 24.7036 12.688 25.5676 12C26.4316 11.312 27.7276 10.968 29.4556 10.968H32.4796V10.68C32.4796 9.864 32.2476 9.264 31.7836 8.88C31.3196 8.496 30.7436 8.304 30.0556 8.304C29.4316 8.304 28.8876 8.456 28.4236 8.76C27.9596 9.048 27.6716 9.48 27.5596 10.056H24.5596C24.6396 9.192 24.9276 8.44 25.4236 7.8C25.9356 7.16 26.5916 6.672 27.3916 6.336C28.1916 5.984 29.0876 5.808 30.0796 5.808C31.7756 5.808 33.1116 6.232 34.0876 7.08C35.0636 7.928 35.5516 9.128 35.5516 10.68V18H32.9356L32.6476 16.08C32.2956 16.72 31.7996 17.248 31.1596 17.664C30.5356 18.08 29.7276 18.288 28.7356 18.288ZM29.4316 15.888C30.3116 15.888 30.9916 15.6 31.4716 15.024C31.9676 14.448 32.2796 13.736 32.4076 12.888H29.7916C28.9756 12.888 28.3916 13.04 28.0396 13.344C27.6876 13.632 27.5116 13.992 27.5116 14.424C27.5116 14.888 27.6876 15.248 28.0396 15.504C28.3916 15.76 28.8556 15.888 29.4316 15.888ZM38.1904 18V6.096H40.9264L41.2144 8.328C41.6464 7.56 42.2304 6.952 42.9664 6.504C43.7184 6.04 44.5984 5.808 45.6064 5.808V9.048H44.7424C44.0704 9.048 43.4704 9.152 42.9424 9.36C42.4144 9.568 41.9984 9.928 41.6944 10.44C41.4064 10.952 41.2624 11.664 41.2624 12.576V18H38.1904ZM52.7174 18C51.4694 18 50.4694 17.696 49.7174 17.088C48.9654 16.48 48.5894 15.4 48.5894 13.848V8.664H46.5494V6.096H48.5894L48.9494 2.904H51.6614V6.096H54.8774V8.664H51.6614V13.872C51.6614 14.448 51.7814 14.848 52.0214 15.072C52.2774 15.28 52.7094 15.384 53.3174 15.384H54.8054V18H52.7174ZM61.6863 18.288C60.1983 18.288 59.0463 17.824 58.2303 16.896C57.4303 15.968 57.0303 14.608 57.0303 12.816V6.096H60.0783V12.528C60.0783 13.552 60.2863 14.336 60.7023 14.88C61.1183 15.424 61.7743 15.696 62.6703 15.696C63.5183 15.696 64.2143 15.392 64.7583 14.784C65.3183 14.176 65.5983 13.328 65.5983 12.24V6.096H68.6703V18H65.9583L65.7183 15.984C65.3503 16.688 64.8143 17.248 64.1103 17.664C63.4223 18.08 62.6143 18.288 61.6863 18.288ZM71.5311 23.28V6.096H74.2671L74.6031 7.8C74.9871 7.272 75.4911 6.808 76.1151 6.408C76.7551 6.008 77.5791 5.808 78.5871 5.808C79.7071 5.808 80.7071 6.08 81.5871 6.624C82.4671 7.168 83.1631 7.912 83.6751 8.856C84.1871 9.8 84.4431 10.872 84.4431 12.072C84.4431 13.272 84.1871 14.344 83.6751 15.288C83.1631 16.216 82.4671 16.952 81.5871 17.496C80.7071 18.024 79.7071 18.288 78.5871 18.288C77.6911 18.288 76.9071 18.12 76.2351 17.784C75.5631 17.448 75.0191 16.976 74.6031 16.368V23.28H71.5311ZM77.9391 15.6C78.9151 15.6 79.7231 15.272 80.3631 14.616C81.0031 13.96 81.3231 13.112 81.3231 12.072C81.3231 11.032 81.0031 10.176 80.3631 9.504C79.7231 8.832 78.9151 8.496 77.9391 8.496C76.9471 8.496 76.1311 8.832 75.4911 9.504C74.8671 10.16 74.5551 11.008 74.5551 12.048C74.5551 13.088 74.8671 13.944 75.4911 14.616C76.1311 15.272 76.9471 15.6 77.9391 15.6ZM97.8888 18.288C96.7848 18.288 95.7848 18.096 94.8888 17.712C93.9928 17.312 93.2728 16.704 92.7288 15.888C92.1848 15.072 91.8968 14.048 91.8648 12.816H94.8888C94.9048 13.632 95.1688 14.32 95.6808 14.88C96.2088 15.424 96.9448 15.696 97.8888 15.696C98.7848 15.696 99.4728 15.448 99.9528 14.952C100.433 14.456 100.673 13.832 100.673 13.08C100.673 12.2 100.353 11.536 99.7128 11.088C99.0888 10.624 98.2808 10.392 97.2888 10.392H96.0408V7.872H97.3128C98.1288 7.872 98.8088 7.68 99.3528 7.296C99.8968 6.912 100.169 6.344 100.169 5.592C100.169 4.968 99.9608 4.472 99.5448 4.104C99.1448 3.72 98.5848 3.528 97.8648 3.528C97.0808 3.528 96.4648 3.76 96.0168 4.224C95.5848 4.688 95.3448 5.256 95.2968 5.928H92.2968C92.3608 4.376 92.8968 3.152 93.9048 2.256C94.9288 1.36 96.2488 0.912 97.8648 0.912C99.0168 0.912 99.9848 1.12 100.769 1.536C101.569 1.936 102.169 2.472 102.569 3.144C102.985 3.816 103.193 4.56 103.193 5.376C103.193 6.32 102.929 7.12 102.401 7.776C101.889 8.416 101.249 8.848 100.481 9.072C101.425 9.264 102.193 9.728 102.785 10.464C103.377 11.184 103.673 12.096 103.673 13.2C103.673 14.128 103.449 14.976 103.001 15.744C102.553 16.512 101.897 17.128 101.033 17.592C100.185 18.056 99.1368 18.288 97.8888 18.288Z" fill="white"/>
</svg>
